<svg xmlns="http://www.w3.org/2000/svg" height="512pt" viewBox="0 -30 512 512" width="512pt"><path d="m328 150.859375v-30h-33.160156l42.714844-76.324219h-86.554688v30h35.386719l-42.714844 76.324219zm0 0"/><path d="m423.667969 90.816406v-30h-25.261719l34.035156-60.816406h-73.441406v30h22.273438l-34.035157 60.816406zm0 0"/><path d="m0 117.308594h65v201h-65zm0 0"/><path d="m486.667969 295.488281c0-32.449219-26.398438-58.847656-58.847657-58.847656h-229.152343v-64.664063h-103.667969v146.332032h391.667969zm0 0"/><path d="m0 348.308594v103h30v-38.34375h452v38.34375h30v-103zm0 0"/></svg>